# xmcd
#
# Track frame offsets:
# 150
# 12339
# 23864
# 42909
# 56560
# 70130
# 84573
# 99244
# 109084
# 124703
# 138742
# 148041
# 155385
# 174120
# 192795
# 203847
# 218948
# 234526
# 250275
# 263714
# 268069
# 277805
# 296434
# 316212
# 335151
#
# Disc length: 4716 seconds
#
# Revision: 0
# Processed by: cddbd v1.5.2PL0 Copyright (c) Steve Scherf et al.
# Submitted via: Audion 3.0.2 (http://www.panic.com/audion/)
#
DISCID=6d126a19
DTITLE=Sandra Grey - Tribunal
DYEAR=1900
DGENRE=
TTITLE0=Tribunal 26
TTITLE1=Tribunal 27
TTITLE2=Tribunal 28
TTITLE3=Tribunal 29
TTITLE4=Tribunal 30
TTITLE5=Tribunal 31
TTITLE6=Tribunal 32
TTITLE7=Tribunal 33
TTITLE8=Tribunal 34
TTITLE9=Tribunal 35
TTITLE10=Tribunal 36
TTITLE11=Tribunal 37
TTITLE12=Tribunal 38
TTITLE13=Tribunal 39
TTITLE14=Tribunal 40
TTITLE15=Tribunal 41
TTITLE16=Tribunal 42
TTITLE17=Tribunal 43
TTITLE18=Tribunal 44
TTITLE19=Tribunal 45
TTITLE20=Tribunal 46
TTITLE21=Tribunal 47
TTITLE22=Tribunal 48
TTITLE23=Tribunal 49
TTITLE24=Tribunal 50
EXTD=
EXTT0=
EXTT1=
EXTT2=
EXTT3=
EXTT4=
EXTT5=
EXTT6=
EXTT7=
EXTT8=
EXTT9=
EXTT10=
EXTT11=
EXTT12=
EXTT13=
EXTT14=
EXTT15=
EXTT16=
EXTT17=
EXTT18=
EXTT19=
EXTT20=
EXTT21=
EXTT22=
EXTT23=
EXTT24=
PLAYORDER=
